# xmcd
#
# Track frame offsets:
#	150
#	20225
#	37825
#	61867
#
# Disc length: 1090 seconds
#
# Revision: 1
# Processed by: cddbd v1.5PL3 Copyright (c) Steve Scherf et al.
# Submitted via: CDex 1.50Beta5
#
DISCID=2a044004
DTITLE=SHAZNA - PIECE OF LOVE
DYEAR=1900
DGENRE=Pop
TTITLE0=PIECE OF LOVE (TV Mix)
TTITLE1=NIGHTMARE
TTITLE2=PIECE OF LOVE (Naural Version)
TTITLE3=PIECE OF LOVE (Nom-Vocal Version)
EXTD=
EXTT0=
EXTT1=
EXTT2=
EXTT3=
PLAYORDER=
